<svg width="207" height="28" viewBox="0 0 207 28" fill="none" xmlns="http://www.w3.org/2000/svg">
<path fill-rule="evenodd" clip-rule="evenodd" d="M21.6553 24.6335C19.2935 26.4877 16.4137 27.4873 13.455 27.4798C6.0237 27.4798 0 21.3285 0 13.7394C0 6.15139 6.0237 0 13.455 0C20.8863 0 26.91 6.15139 26.91 13.7394C26.91 16.9885 25.8057 19.9748 23.9602 22.3268L30.015 27.4798H22.77L21.6553 24.6335ZM13.455 24.3094C19.1713 24.3094 23.805 19.5774 23.805 13.7394C23.805 7.90246 19.1713 3.17046 13.455 3.17046C7.73869 3.17046 3.105 7.90246 3.105 13.7394C3.105 19.5763 7.73869 24.3094 13.455 24.3094ZM35.782 20.8708H39.063C38.7835 25.4972 47.2198 25.6555 47.3606 22.2008C47.3606 18.6491 40.7987 20.9085 37.2434 17.2782C34.8309 15.0812 34.7615 8.22769 42.3439 8.03385C44.0423 8.01123 45.6663 8.43662 46.8876 9.12154V8.35692H50.1302V14.6548H46.8855V13.482C45.8205 11.8688 44.4377 11.1386 42.5364 11.1386C40.5627 11.1386 39.2596 12.0691 39.2596 13.482C39.2596 16.6718 46.4508 14.8131 49.5341 17.9631C53.2994 22.2008 50.1292 27.9526 43.9637 27.7297C41.9454 27.7297 40.4054 27.2882 39.0619 26.3588V27.4098H35.781L35.782 20.8708ZM55.6623 3.31046H52.3037V0H59.38V10.5355C61.7077 8.59923 63.5666 7.79154 65.5838 7.79154C68.5066 7.79154 70.7215 9.28308 70.7215 13.5638V24.0994H73.9259V27.4098H67.0049V14.3694C67.0049 12.5128 66.4532 11.1386 64.7154 11.1386C63.371 11.1386 61.4738 12.0282 59.38 13.6446V24.0994H62.5782V27.4098H52.2623V24.0994H55.6623V3.31046ZM93.8828 27.412H87.3995V25.0665C82.1976 29.9848 75.3055 27.6715 75.0706 21.6742C75.0561 17.3288 80.3046 13.0534 86.9669 17.1145C86.8489 14.6354 87.8239 11.1742 82.8165 10.9383C81.0363 10.9383 79.6546 11.7083 78.8235 13.2042L75.3045 12.2306C78.2543 5.89185 90.8637 6.29677 90.6805 13.6446V24.1015H93.8828V27.4109V27.412ZM86.9669 20.3043C84.6578 18.2205 79.0181 16.9497 78.5875 21.6742C78.9425 26.2048 84.4311 25.1634 86.9669 22.5637V20.3043ZM99.7316 11.6642H95.9755V8.35585H102.654V12.6937C103.844 9.50277 106.293 8.03492 108.624 8.03492H111.033V11.8289H109.056C102.03 11.9355 103.444 17.9674 103.444 24.1005H107.48V27.4109H96.0532V24.1015H99.7295V11.6631L99.7316 11.6642ZM114.295 18.8117C115.29 26.0055 123.522 26.0949 126.684 21.5557L129.91 23.0085C124.313 31.6745 110.119 28.4771 110.245 17.8823C110.245 11.7083 115.161 7.79154 119.996 7.79154C125.151 7.79154 129.91 11.83 129.91 18.8117H114.295ZM126.173 16.0634C125.583 13.0394 122.988 10.8166 120.079 10.8166C117.168 10.8166 114.964 12.8757 114.412 16.0634H126.173Z" fill="#333333"/>
<path fill-rule="evenodd" clip-rule="evenodd" d="M20.7 11.6349C20.7 14.4069 17.9924 18.0523 13.4539 21.1377C9.16592 18.2321 6.20996 14.3703 6.20996 11.6349C6.30829 6.71874 12.0919 6.50227 13.4539 8.88874C14.8646 6.50227 20.6151 6.68212 20.7 11.6349ZM191.385 18.8104C192.381 26.0043 200.612 26.0926 203.775 21.5534L207 23.0061C201.403 31.6732 187.209 28.4747 187.335 17.88C187.335 11.706 192.251 7.7892 197.087 7.7892C202.241 7.7892 207 11.8277 207 18.8104H191.385ZM176.092 11.6607H172.338V8.35351H179.017V12.6903C180.206 9.49935 182.656 8.03258 184.987 8.03258H187.395V11.8266H185.418C178.393 11.9321 179.806 17.965 179.806 24.0981H183.842V27.4086H172.415V24.0981H176.092V11.6607ZM170.244 27.4183H163.761V25.0727C158.559 29.9921 151.665 27.6789 151.43 21.6804C151.416 17.3361 156.664 13.0607 163.327 17.1218C163.21 14.6427 164.185 11.1815 159.177 10.9457C157.397 10.9457 156.016 11.7157 155.185 13.2115L151.666 12.2369C154.614 5.8992 167.224 6.30412 167.042 13.6509V24.1078H170.244V27.4183ZM203.264 16.061C202.673 13.037 200.078 10.8143 197.167 10.8143C194.259 10.8143 192.055 12.8734 191.502 16.061H203.264ZM163.327 20.3106C161.019 18.2278 155.378 16.957 154.949 21.6815C155.302 26.211 160.791 25.1707 163.327 22.571V20.3106ZM149.017 15.5409H145.698C145.4 13.1243 143.65 11.2224 140.758 11.2224C137.437 11.2224 135.223 13.8447 135.223 17.6797C135.637 26.6989 144.555 25.8535 146.528 20.7877L149.573 22.2415C147.951 25.9957 144.869 27.9729 140.794 27.9729C134.315 27.9729 131.272 22.5624 131.272 17.7206C131.272 12.2304 135.342 7.79135 140.441 7.79135C142.458 7.79135 144.312 8.43751 145.699 9.64689V8.35458H149.017V15.5409Z" fill="#1ABA9C"/>
</svg>
